HIERARCHY
ROOT root
{
	OFFSET 0.000000 0.000000 0.000000
	CHANNELS 6 Xposition Yposition Zposition Zrotation Yrotation Xrotation
	JOINT lhip
	{
		OFFSET 0.058581 -0.082280 -0.017664
		CHANNELS 3 Zrotation Yrotation Xrotation
		JOINT lknee
		{
			OFFSET 0.043451 -0.386469 0.008037
			CHANNELS 3 Zrotation Yrotation Xrotation
			JOINT lankle
			{
				OFFSET -0.014790 -0.426874 -0.037428
				CHANNELS 3 Zrotation Yrotation Xrotation
				JOINT ltoe
				{
					OFFSET 0.041054 -0.060286 0.122042
					CHANNELS 3 Zrotation Yrotation Xrotation
					End Site
					{
						OFFSET 0.000000 0.000000 0.000000
					}
				}
			}
		}
	}
	JOINT rhip
	{
		OFFSET -0.060310 -0.090513 -0.013543
		CHANNELS 3 Zrotation Yrotation Xrotation
		JOINT rknee
		{
			OFFSET -0.043257 -0.383688 -0.004843
			CHANNELS 3 Zrotation Yrotation Xrotation
			JOINT rankle
			{
				OFFSET 0.019056 -0.420046 -0.034562
				CHANNELS 3 Zrotation Yrotation Xrotation
				JOINT rtoe
				{
					OFFSET -0.034840 -0.062106 0.130323
					CHANNELS 3 Zrotation Yrotation Xrotation
					End Site
					{
						OFFSET 0.000000 0.000000 0.000000
					}
				}
			}
		}
	}
	JOINT lowerback
	{
		OFFSET 0.004439 0.124404 -0.038385
		CHANNELS 3 Zrotation Yrotation Xrotation
		JOINT upperback
		{
			OFFSET 0.004488 0.137956 0.026820
			CHANNELS 3 Zrotation Yrotation Xrotation
			JOINT chest
			{
				OFFSET -0.002265 0.056032 0.002855
				CHANNELS 3 Zrotation Yrotation Xrotation
				JOINT lowerneck
				{
					OFFSET -0.013390 0.211636 -0.033468
					CHANNELS 3 Zrotation Yrotation Xrotation
					JOINT upperneck
					{
						OFFSET 0.010113 0.088937 0.050410
						CHANNELS 3 Zrotation Yrotation Xrotation
						End Site
						{
							OFFSET 0.000000 0.000000 0.000000
						}
					}
				}
				JOINT lclavicle
				{
					OFFSET 0.071702 0.114000 -0.018898
					CHANNELS 3 Zrotation Yrotation Xrotation
					JOINT lshoulder
					{
						OFFSET 0.122921 0.045205 -0.019046
						CHANNELS 3 Zrotation Yrotation Xrotation
						JOINT lelbow
						{
							OFFSET 0.255332 -0.015649 -0.022946
							CHANNELS 3 Zrotation Yrotation Xrotation
							JOINT lwrist
							{
								OFFSET 0.265709 0.012698 -0.007375
								CHANNELS 3 Zrotation Yrotation Xrotation
								End Site
								{
									OFFSET 0.000000 0.000000 0.000000
								}
							}
						}
					}
				}
				JOINT rclavicle
				{
					OFFSET -0.082954 0.112472 -0.023707
					CHANNELS 3 Zrotation Yrotation Xrotation
					JOINT rshoulder
					{
						OFFSET -0.113228 0.046853 -0.008472
						CHANNELS 3 Zrotation Yrotation Xrotation
						JOINT relbow
						{
							OFFSET -0.260127 -0.014369 -0.031269
							CHANNELS 3 Zrotation Yrotation Xrotation
							JOINT rwrist
							{
								OFFSET -0.269108 0.006794 -0.006027
								CHANNELS 3 Zrotation Yrotation Xrotation
								End Site
								{
									OFFSET 0.000000 0.000000 0.000000
								}
							}
						}
					}
				}
			}
		}
	}
}
MOTION
Frames: 10
Frame Time: 0.033333
0.540358 0.845250 1.353626 162.388799 -10.278258 85.475565 7.492195 -10.853691 -21.605237 -3.562275 -6.116480 42.790295 1.195155 8.128293 10.403431 0.000000 -0.000000 0.000000 3.509965 2.689031 -12.430943 1.883245 2.420038 33.504295 11.853960 -2.586211 30.413543 0.000000 -0.000000 0.000000 -5.118979 2.806436 14.379421 3.088897 -4.711427 0.635801 0.627512 -2.752483 2.202175 -0.317251 3.583624 10.318545 10.358190 8.022293 7.066419 -22.679539 -5.489470 3.413366 -50.574195 -12.632822 16.471737 -8.637921 -66.662556 25.110834 8.786430 -9.861715 -9.817745 20.624473 -3.024129 3.208377 66.850534 -8.852736 16.204908 -26.457293 63.553645 -7.819238 2.152710 6.677653 -12.528642 
0.546493 0.856786 1.329027 174.604744 -12.070214 84.251552 8.638929 -9.460315 -23.318226 -4.107793 -2.307707 46.115914 0.633692 8.651168 9.121794 0.000000 -0.000000 0.000000 1.659443 4.002297 -12.466882 1.125132 6.779013 32.662024 12.297058 -1.802215 26.894095 0.000000 -0.000000 0.000000 -6.115492 3.360884 12.737579 3.155360 -4.706782 0.516907 0.247341 -2.620363 2.630807 0.024723 4.443929 10.551090 10.105471 7.199438 6.462117 -20.638155 -4.217450 3.599643 -45.611929 -12.891921 13.841942 -7.082066 -69.437628 20.616151 8.748226 -10.097017 -10.794620 21.249123 -4.189965 3.081523 65.957545 -9.492336 16.553088 -25.228369 62.906307 -7.222470 1.351474 5.911001 -9.518451 
0.549888 0.870075 1.293276 -173.810922 -13.628958 83.175808 9.545999 -7.572760 -25.799844 -4.697309 0.979777 50.634483 0.951758 9.292702 8.788202 0.000000 -0.000000 0.000000 -0.374684 5.018876 -11.942972 0.245989 11.987361 31.042033 12.946342 -1.065204 25.486281 0.000000 -0.000000 0.000000 -7.046036 3.973205 10.959949 3.143552 -4.518067 -0.401402 0.014797 -2.523199 3.739048 -0.041655 4.238685 9.933378 10.391373 6.907079 6.572520 -18.308208 -2.185192 2.409185 -41.076283 -13.186427 11.750601 -8.294984 -72.531133 20.358180 11.184197 -9.628281 -12.733621 21.146382 -5.264671 2.411100 65.881219 -10.553872 17.008157 -25.621720 62.139556 -9.070898 1.175030 6.387913 -10.152909 
0.551141 0.886508 1.246942 -161.969417 -14.496634 81.341777 10.941909 -6.135374 -27.917328 -4.889005 4.827316 55.097061 1.014016 10.379088 8.800431 0.000000 -0.000000 0.000000 -2.318846 5.641484 -9.324872 0.053230 16.946572 28.378806 12.098198 0.154388 23.010711 0.000000 -0.000000 0.000000 -8.054365 4.216397 8.887631 3.425822 -5.053666 -0.566657 -0.135150 -2.278303 4.516261 -0.140120 4.568144 9.796429 10.358425 6.454229 6.211150 -16.208359 -0.398277 2.526363 -36.645141 -12.858295 9.373302 -8.648885 -76.697375 18.968928 11.840393 -8.554721 -16.387241 21.055298 -6.382334 2.247184 65.461470 -10.561442 17.261856 -24.920039 61.394601 -8.709084 2.925068 5.639681 -9.615760 
0.546971 0.902857 1.190443 -149.203378 -15.103736 79.313779 12.470814 -6.778520 -31.245046 -5.393568 8.826911 60.610482 0.025061 10.062059 9.014234 0.000000 -0.000000 0.000000 -5.033149 5.720414 -5.519442 -0.561662 18.538790 25.259344 9.581711 -0.724389 18.815175 0.000000 -0.000000 0.000000 -8.976828 4.286100 6.658697 3.536292 -6.093331 -1.027797 -0.552966 -2.373293 5.370369 -0.455812 4.471139 9.932290 10.359114 6.307280 5.647225 -13.829064 2.002973 2.777969 -33.863451 -12.604438 7.443893 -6.879531 -79.944615 17.003246 12.125508 -8.560181 -18.215900 20.487372 -8.106657 1.450741 65.344313 -10.782700 17.714402 -24.105667 60.519947 -7.968184 4.540815 5.385127 -9.025574 
0.544191 0.918576 1.122887 -138.193429 -14.769977 77.054898 13.900401 -6.134999 -34.279279 -6.542358 10.383676 67.594690 -0.220549 9.234918 8.873904 0.000000 -0.000000 0.000000 -5.260970 4.984726 -2.802910 -1.483391 20.049943 25.132368 5.550266 -3.334695 22.963852 0.000000 -0.000000 0.000000 -9.717248 5.128475 5.370215 3.658659 -6.461327 -1.323198 -0.598544 -2.648628 5.947264 -1.984255 3.497669 10.230790 10.991236 7.679605 5.239439 -12.146001 3.015096 4.210883 -29.944843 -10.947122 4.833870 -9.930662 -83.614323 20.774344 12.176811 -7.779589 -19.195155 20.019306 -8.407775 1.551728 65.224211 -11.088657 17.085618 -23.659645 59.977944 -7.784796 6.380594 5.475188 -9.790948 
0.541562 0.931160 1.043507 -126.776568 -13.421201 75.188268 14.586328 -7.072924 -38.278397 -7.958506 11.543298 76.248066 -0.808297 9.265597 6.644147 0.000000 -0.000000 0.000000 -4.327212 7.103064 -1.290843 2.027003 20.173357 31.744230 3.582447 -4.187376 0.924894 0.000000 -0.000000 0.000000 -10.926501 5.826193 4.330413 4.558424 -6.874125 -0.333820 -0.666789 -2.760976 5.767480 -0.826144 5.534668 10.474602 9.879105 5.385576 4.409951 -9.686314 3.251397 4.736210 -28.329633 -10.452566 4.918403 -9.116390 -85.282936 18.375096 13.345768 -6.659816 -22.407456 20.267529 -8.361862 1.149141 64.652340 -11.135342 17.087035 -23.582981 58.440683 -7.709773 3.867015 4.957763 -9.522060 
0.540159 0.942141 0.969782 -116.251105 -10.908009 71.969117 12.349792 -8.225987 -36.882054 -8.188544 10.637854 83.483255 -2.892713 8.858592 4.554534 0.000000 -0.000000 0.000000 -0.804989 6.687269 1.280193 0.001417 12.634641 38.503478 -1.573138 -8.372657 -28.580456 0.000000 -0.000000 0.000000 -10.567856 6.219676 7.311126 4.964505 -6.947895 -0.536093 -0.788711 -2.425408 4.641149 1.047743 7.929861 13.536832 8.173093 3.061611 1.381859 -9.882857 1.833247 5.469313 -25.909835 -9.454165 4.771807 -8.559297 -83.746192 18.900557 13.371780 -6.414471 -24.965977 21.906341 -5.748097 1.692384 63.483963 -10.548411 15.866528 -21.616961 54.815807 -3.558663 -0.857895 5.963580 -11.385103 
0.543844 0.952238 0.917831 -106.639049 -7.429128 71.032597 8.978480 -9.255343 -31.118204 -9.112890 9.815351 85.577437 -3.238409 9.710629 1.595093 0.000000 -0.000000 0.000000 4.294868 5.970549 -1.608333 -1.474545 6.078612 46.784499 -4.207976 -17.038119 -39.789680 0.000000 -0.000000 0.000000 -9.954352 6.042971 8.389376 5.405143 -6.307721 -0.163112 -0.429205 -2.195296 3.277690 1.152333 8.025659 15.898702 7.473839 3.247387 -0.086999 -11.864249 -0.566479 5.587350 -25.030985 -9.055452 4.699094 -10.557087 -76.820987 19.729461 9.787689 -6.740360 -21.568891 23.779548 -2.958199 2.732199 62.410649 -8.809211 15.197888 -20.823343 51.234188 -2.063597 0.169136 4.302354 -8.794834 
0.550996 0.959158 0.891900 -96.072623 -3.138663 70.710086 4.831877 -9.092049 -20.162245 -11.822361 6.584764 81.395490 -2.993226 10.137032 -3.498824 0.000000 -0.000000 0.000000 6.565259 6.346049 -7.281823 -1.936630 -3.311754 56.620098 -2.255672 -18.579895 -38.324247 0.000000 -0.000000 0.000000 -9.125755 4.135942 9.604571 5.658545 -6.038168 0.408611 -0.232586 -2.943618 2.555400 2.547942 8.560638 15.918278 5.914987 2.691434 0.046659 -13.018634 -3.314403 6.912236 -26.778241 -7.717564 4.826999 -2.690174 -66.216578 10.685936 8.113490 -7.505171 -17.188140 24.224569 -0.197900 1.705863 62.416505 -6.265422 15.499929 -19.569216 47.350606 -0.646137 2.746299 4.220028 -8.708302 
